<?xml version="1.0" standalone="no"?>
<!DOCTYPE svg PUBLIC "-//W3C//DTD SVG 20010904//EN"
 "http://www.w3.org/TR/2001/REC-SVG-20010904/DTD/svg10.dtd">
<svg version="1.0" xmlns="http://www.w3.org/2000/svg"
 width="2955.000000pt" height="2955.000000pt" viewBox="0 0 2955.000000 2955.000000"
 preserveAspectRatio="xMidYMid meet">
<metadata>
Created by potrace 1.14, written by Peter Selinger 2001-2017
</metadata>
<g transform="translate(0.000000,2955.000000) scale(0.100000,-0.100000)"
fill="#000000" stroke="none">
<path d="M15829 24846 c-2 -2 -26 -6 -54 -10 -27 -3 -59 -8 -70 -10 -11 -2
-40 -7 -65 -10 -25 -3 -56 -8 -70 -11 -13 -2 -40 -7 -60 -10 -20 -3 -45 -7
-55 -9 -11 -2 -42 -7 -70 -10 -27 -4 -57 -9 -65 -11 -8 -2 -37 -6 -65 -10 -45
-5 -99 -13 -300 -45 -33 -5 -94 -14 -135 -21 -41 -6 -84 -12 -95 -14 -11 -1
-42 -6 -70 -10 -27 -4 -57 -8 -65 -10 -19 -3 -82 -13 -135 -20 -22 -3 -65 -10
-95 -15 -30 -5 -73 -12 -95 -15 -106 -15 -183 -27 -215 -31 -19 -2 -91 -14
-160 -25 -69 -11 -143 -22 -165 -25 -22 -3 -65 -9 -95 -14 -30 -5 -75 -12
-100 -15 -25 -3 -52 -8 -60 -10 -8 -2 -35 -6 -60 -9 -40 -5 -274 -40 -340 -51
-14 -2 -59 -9 -100 -15 -41 -6 -104 -16 -140 -21 -36 -6 -79 -12 -96 -14 -17
-3 -74 -11 -125 -19 -52 -8 -112 -17 -134 -21 -22 -3 -83 -12 -135 -20 -175
-27 -225 -35 -265 -41 -22 -3 -65 -9 -95 -14 -62 -10 -80 -13 -270 -41 -169
-24 -189 -28 -219 -33 -12 -3 -44 -8 -69 -11 -25 -3 -73 -9 -106 -15 -80 -13
-124 -20 -161 -25 -16 -2 -46 -7 -65 -10 -19 -3 -53 -8 -75 -11 -22 -3 -65 -9
-95 -14 -30 -5 -73 -12 -95 -15 -48 -7 -202 -30 -262 -39 -16 -3 -46 -7 -68
-11 -23 -3 -50 -7 -60 -9 -20 -4 -90 -15 -135 -21 -14 -2 -45 -7 -70 -10 -25
-4 -54 -8 -65 -10 -30 -4 -118 -17 -140 -21 -21 -4 -77 -12 -122 -19 -15 -2
-75 -11 -133 -20 -58 -9 -120 -18 -139 -21 -32 -4 -256 -38 -331 -50 -19 -3
-51 -7 -70 -10 -35 -5 -144 -21 -190 -29 -14 -2 -54 -9 -90 -14 -54 -8 -253
-38 -375 -56 -16 -3 -41 -7 -55 -9 -14 -3 -61 -10 -105 -16 -107 -15 -144 -21
-165 -25 -10 -2 -40 -6 -67 -10 -51 -7 -82 -12 -123 -19 -14 -3 -91 -14 -172
-26 -81 -11 -155 -22 -165 -24 -22 -4 -99 -16 -133 -21 -78 -11 -211 -31 -260
-40 -14 -2 -45 -7 -70 -10 -53 -7 -95 -14 -130 -20 -14 -2 -45 -7 -70 -10
-253 -34 -318 -52 -320 -88 0 -5 -12 -34 -26 -65 -14 -31 -71 -160 -126 -286
-55 -126 -111 -254 -124 -285 -14 -31 -29 -65 -34 -76 -4 -11 -17 -40 -28 -65
-11 -25 -63 -146 -117 -270 -54 -124 -102 -231 -107 -237 -6 -7 -7 -13 -4 -13
4 0 0 -12 -8 -27 -18 -35 -18 -34 -222 -503 -75 -173 -145 -333 -155 -355 -9
-22 -63 -146 -119 -275 -56 -129 -110 -253 -120 -275 -10 -22 -48 -107 -83
-190 -36 -82 -76 -175 -89 -205 -24 -52 -39 -89 -43 -100 -1 -3 -14 -32 -29
-65 -15 -33 -36 -80 -46 -105 -10 -25 -32 -75 -49 -112 -17 -36 -31 -69 -31
-72 0 -3 -12 -31 -26 -62 -14 -31 -89 -201 -165 -377 -77 -176 -147 -337 -156
-356 -9 -20 -17 -38 -17 -41 -1 -3 -14 -31 -29 -64 -15 -32 -27 -60 -27 -63 0
-2 -9 -23 -19 -46 -11 -23 -43 -96 -71 -162 -29 -66 -60 -138 -70 -160 -10
-22 -94 -215 -188 -430 -93 -214 -263 -604 -377 -865 -183 -420 -335 -768
-441 -1013 l-34 -79 28 24 c16 12 46 37 67 53 21 17 165 131 319 254 155 122
296 235 315 250 19 14 51 40 70 57 20 16 110 88 201 160 91 71 170 133 176
139 6 5 28 24 49 40 21 17 120 95 220 175 100 80 197 157 216 172 19 14 120
94 224 178 105 83 197 156 205 163 8 7 47 37 85 67 39 30 72 57 75 60 3 3 48
39 100 80 52 41 97 77 100 80 3 3 82 66 175 140 94 74 175 139 181 145 7 5 24
19 40 30 15 11 55 43 89 70 33 28 78 64 99 80 21 17 143 113 270 215 128 102
258 205 290 230 32 25 67 53 79 64 12 10 38 30 57 45 19 14 37 28 40 32 3 3
59 48 125 100 67 52 139 109 160 127 45 36 153 122 210 167 48 38 691 550 727
578 50 41 830 662 893 712 136 106 352 278 394 313 24 21 54 43 65 51 12 8 23
17 26 21 3 3 25 21 50 40 25 19 47 37 50 40 16 17 152 121 154 118 2 -1 -52
-91 -118 -199 -141 -228 -294 -479 -317 -517 -14 -23 -242 -398 -269 -442
-103 -168 -188 -308 -200 -329 -15 -25 -71 -116 -98 -157 -6 -10 -15 -26 -19
-34 -4 -8 -9 -17 -13 -20 -5 -4 -62 -97 -105 -172 -5 -10 -48 -80 -94 -155
-47 -76 -145 -237 -219 -358 -74 -121 -164 -269 -202 -330 -171 -280 -264
-432 -279 -457 -9 -15 -38 -64 -66 -109 -27 -45 -57 -95 -66 -110 -9 -16 -21
-34 -27 -41 -5 -7 -19 -29 -30 -48 -10 -19 -55 -93 -98 -163 -44 -71 -86 -140
-95 -155 -9 -15 -62 -101 -117 -192 -56 -91 -154 -253 -219 -360 -65 -107
-121 -197 -124 -200 -3 -3 -12 -17 -20 -32 -8 -15 -34 -60 -59 -100 -25 -40
-49 -81 -55 -90 -8 -14 -59 -97 -155 -253 -8 -14 -51 -84 -95 -157 -43 -73
-82 -135 -85 -138 -3 -3 -24 -36 -47 -75 -22 -38 -71 -119 -108 -180 -38 -60
-75 -121 -82 -135 -8 -14 -33 -55 -56 -92 -52 -83 -196 -319 -218 -356 -9 -15
-59 -97 -111 -182 -52 -85 -141 -231 -198 -325 -98 -161 -121 -199 -166 -270
-10 -16 -55 -89 -99 -162 -287 -473 -455 -749 -462 -759 -9 -11 -9 -11 -86
-139 -29 -49 -102 -168 -160 -264 -59 -95 -107 -177 -107 -182 0 -5 -4 -9 -10
-9 -5 0 -10 -4 -10 -9 0 -4 -66 -116 -146 -247 -81 -131 -167 -273 -192 -314
-25 -41 -79 -128 -119 -193 -40 -65 -73 -120 -73 -122 0 -2 -32 -54 -70 -117
-39 -62 -75 -120 -80 -128 -15 -25 -260 -427 -390 -640 -5 -8 -42 -69 -83
-135 -41 -66 -127 -208 -193 -315 -65 -107 -142 -233 -170 -280 -29 -47 -84
-137 -122 -200 -39 -63 -95 -155 -126 -205 -30 -49 -66 -108 -79 -130 -13 -22
-75 -123 -137 -225 -62 -102 -132 -215 -154 -252 -158 -259 -275 -451 -387
-633 -106 -173 -294 -482 -359 -590 -44 -73 -300 -491 -381 -622 -52 -84 -98
-161 -104 -171 -20 -35 -59 -98 -92 -149 -18 -28 -33 -56 -33 -62 0 -6 -4 -11
-10 -11 -5 0 -10 -4 -10 -10 0 -5 -20 -41 -45 -80 -25 -39 -45 -75 -45 -80 0
-6 -4 -10 -10 -10 -5 0 -10 -4 -10 -9 0 -7 -26 -51 -90 -156 -8 -14 -71 -116
-139 -227 -68 -112 -130 -214 -139 -228 -17 -26 -156 -254 -201 -328 -14 -24
-33 -56 -42 -70 -91 -148 -420 -685 -434 -710 -11 -19 -121 -199 -136 -222 -5
-8 -27 -44 -48 -80 -35 -56 -140 -229 -164 -267 -10 -16 1809 -12 5498 12 534
3 1213 8 1510 10 297 3 866 7 1265 10 399 3 973 7 1275 10 303 3 840 7 1195
10 355 3 881 8 1170 10 289 3 788 7 1110 10 850 7 2648 24 4175 40 1317 13
1601 16 1990 20 231 3 670 7 975 10 305 3 717 8 915 10 198 2 646 7 995 10
349 4 739 8 865 10 127 2 511 4 854 4 l623 1 167 102 c91 55 180 109 196 118
17 9 62 36 100 60 257 158 628 380 635 380 5 0 10 3 12 8 2 4 77 52 168 106
91 55 269 163 395 239 127 77 242 147 257 156 15 9 116 70 225 136 109 66 207
125 218 131 57 32 502 305 512 314 7 5 15 10 18 10 3 0 24 12 47 26 91 58 655
398 683 412 17 9 63 37 103 64 41 26 75 48 78 48 2 0 23 12 47 27 69 44 497
303 568 345 57 33 71 47 93 92 14 29 26 56 26 59 0 6 22 57 65 152 8 17 93
217 190 445 97 228 180 424 186 435 30 63 137 321 134 323 -2 2 -11 -1 -22 -7
-10 -6 -67 -29 -128 -52 -60 -22 -119 -45 -130 -49 -26 -12 -280 -112 -465
-184 -367 -144 -557 -218 -575 -226 -20 -9 -114 -46 -425 -166 -91 -36 -174
-69 -185 -74 -38 -18 -180 -70 -191 -70 -7 0 -14 -4 -16 -10 -1 -5 -12 -11
-23 -13 -11 -2 -31 -9 -45 -15 -14 -5 -65 -26 -115 -45 -90 -35 -224 -87 -540
-212 -93 -37 -240 -94 -325 -127 -85 -34 -197 -78 -247 -98 -51 -21 -93 -36
-93 -34 0 3 18 21 39 42 52 49 572 555 676 657 137 134 647 630 654 635 3 3
15 16 26 29 l20 23 -35 -15 c-19 -9 -73 -32 -120 -52 -47 -20 -99 -43 -115
-50 -43 -19 -88 -38 -100 -41 -5 -1 -84 -33 -175 -72 -91 -38 -259 -109 -375
-157 -115 -48 -223 -93 -240 -100 -16 -7 -97 -41 -180 -74 -82 -34 -159 -66
-170 -71 -11 -5 -189 -79 -395 -165 -206 -85 -384 -159 -395 -164 -11 -5 -49
-21 -85 -36 -36 -15 -79 -33 -97 -41 -17 -8 -34 -14 -37 -14 -3 0 -35 -13 -71
-30 -36 -16 -68 -30 -71 -30 -3 0 -22 -7 -42 -16 -21 -9 -46 -20 -57 -24 -11
-5 -40 -17 -65 -28 -25 -10 -119 -50 -210 -87 -91 -37 -178 -74 -195 -81 -16
-7 -47 -20 -69 -28 l-38 -16 14 23 c8 12 28 45 43 72 16 28 32 52 35 55 3 3
10 14 16 25 11 20 492 825 714 1195 65 107 114 196 109 198 -4 2 -209 -99
-456 -224 -246 -125 -581 -295 -743 -377 -622 -315 -1181 -598 -2204 -1116
-315 -160 -337 -170 -317 -139 11 18 47 78 78 133 31 55 60 102 63 105 3 3 11
16 18 29 37 65 58 101 169 286 269 450 418 701 430 724 7 13 32 55 56 95 80
131 110 181 127 211 9 17 68 116 131 220 139 232 140 235 86 193 -23 -18 -44
-36 -47 -39 -12 -13 -279 -208 -322 -235 -27 -16 -48 -32 -48 -36 0 -5 -6 -8
-14 -8 -8 0 -16 -4 -18 -8 -1 -4 -39 -30 -83 -57 -44 -27 -82 -52 -85 -55 -3
-4 -31 -22 -64 -41 -32 -19 -75 -44 -95 -57 -20 -12 -52 -31 -71 -42 -19 -11
-48 -29 -65 -39 -112 -68 -330 -187 -595 -324 -107 -55 -202 -104 -210 -108
-31 -17 -329 -157 -480 -226 -30 -14 -88 -41 -128 -59 -40 -19 -74 -34 -77
-34 -2 0 -34 -14 -72 -31 -134 -60 -149 -67 -238 -104 -49 -20 -108 -45 -130
-55 -22 -10 -92 -39 -155 -65 -108 -43 -120 -46 -200 -45 -47 1 -101 3 -120 5
-19 2 -105 6 -190 10 -158 7 -206 9 -410 20 -63 3 -162 8 -220 11 -348 16
-520 25 -605 29 -38 2 -130 7 -204 10 -73 3 -165 7 -205 10 -39 2 -129 7 -201
10 -71 3 -166 8 -210 10 -44 3 -134 7 -200 10 -66 3 -156 8 -200 10 -44 2
-136 7 -205 10 -69 3 -161 8 -205 10 -44 3 -132 7 -195 10 -228 11 -297 16
-420 30 -25 2 -70 7 -100 10 -30 3 -77 8 -105 11 -139 14 -221 22 -290 29 -27
2 -66 6 -85 9 -33 5 -73 9 -207 21 -32 3 -77 8 -100 10 -24 3 -62 7 -85 10
-24 2 -70 7 -103 10 -33 3 -78 8 -100 10 -22 3 -65 7 -95 10 -30 2 -98 10
-150 15 -52 6 -120 13 -150 16 -30 2 -73 6 -95 9 -22 2 -65 7 -95 10 -30 3
-76 8 -102 10 -27 3 -70 7 -98 10 -155 15 -199 21 -305 35 -38 6 -86 12 -105
14 -19 2 -114 16 -210 30 -96 14 -195 28 -220 31 -25 3 -58 8 -74 11 -16 3
-40 7 -55 9 -14 1 -46 5 -71 9 -25 3 -61 8 -80 10 -19 2 -64 9 -100 15 -36 6
-84 13 -107 16 -44 5 -168 23 -213 31 -14 2 -45 6 -70 9 -25 4 -92 13 -150 21
-58 8 -123 17 -145 20 -22 3 -65 9 -95 14 -30 5 -73 11 -95 14 -22 3 -57 7
-77 11 -21 3 -55 7 -75 10 -21 3 -69 10 -108 16 -38 5 -88 12 -110 15 -22 3
-148 21 -280 40 -132 19 -262 37 -289 40 -27 3 -52 7 -55 9 -4 2 -34 6 -68 10
-34 3 -72 8 -84 10 -13 3 -41 7 -64 10 -22 3 -85 13 -140 21 -55 8 -122 17
-150 20 -27 4 -57 8 -65 9 -23 4 -44 -60 210 625 55 146 275 738 490 1315 215
578 392 1057 395 1065 2 8 43 119 90 245 48 127 111 298 141 380 31 83 59 160
64 172 5 12 41 109 81 215 39 106 81 220 94 253 12 33 44 119 70 190 26 72 55
149 66 172 10 24 19 46 19 49 0 8 146 407 161 439 4 11 47 126 94 255 48 129
96 257 107 285 11 27 21 54 23 60 1 5 5 17 8 25 9 22 100 267 357 960 346 933
349 941 370 995 10 28 49 131 85 230 179 483 228 616 254 685 16 41 52 138 80
215 29 77 55 147 58 155 3 8 7 17 8 20 1 3 4 12 8 20 31 82 89 238 92 250 2 8
44 123 94 255 49 132 113 302 141 379 28 76 55 148 60 160 5 11 71 188 146
391 284 767 580 1563 593 1596 6 13 26 67 45 119 19 52 116 315 215 583 100
268 187 504 195 525 7 20 65 177 129 347 63 171 145 391 181 490 37 99 71 189
76 200 4 11 26 70 49 130 22 61 67 182 100 270 47 127 361 974 522 1408 20 55
25 77 15 77 -7 0 -15 -2 -17 -4z"/>
</g>
</svg>
